<svg xmlns="http://www.w3.org/2000/svg" xmlns:xlink="http://www.w3.org/1999/xlink" width="500" zoomAndPan="magnify" viewBox="0 0 375 374.999991" height="500" preserveAspectRatio="xMidYMid meet" version="1.0"><defs><clipPath id="9840ede2e3"><path d="M 33.671875 87.070312 L 273 87.070312 L 273 375 L 33.671875 375 Z M 33.671875 87.070312 " clip-rule="nonzero"/></clipPath><clipPath id="aaddcc60e8"><path d="M 150.5625 100 L 355.5 100 L 355.5 318 L 150.5625 318 Z M 150.5625 100 " clip-rule="nonzero"/></clipPath><clipPath id="0bbd4c29f7"><path d="M 33.671875 87.070312 L 273 87.070312 L 273 375 L 33.671875 375 Z M 33.671875 87.070312 " clip-rule="nonzero"/></clipPath><clipPath id="62a09a162c"><path d="M 150.5625 100 L 355.5 100 L 355.5 318 L 150.5625 318 Z M 150.5625 100 " clip-rule="nonzero"/></clipPath></defs><rect x="-37.5" width="450" fill="#ffffff" y="-37.499999" height="449.999989" fill-opacity="1"/><rect x="-37.5" width="450" fill="#d6c5ba" y="-37.499999" height="449.999989" fill-opacity="1"/><g clip-path="url(#9840ede2e3)"><path fill="#100f0d" d="M 233.585938 372.171875 L 268.953125 349.65625 C 272.640625 347.3125 273.726562 342.421875 271.378906 338.730469 L 234.878906 356.640625 C 231.90625 358.097656 228.5625 358.035156 225.742188 356.734375 L 265.824219 328.90625 L 264.457031 326.707031 L 221.683594 353.390625 C 221.539062 353.191406 221.367188 353.019531 221.234375 352.8125 L 218.777344 348.949219 L 260.335938 320.097656 L 258.960938 317.898438 L 216.054688 344.671875 L 213.210938 340.199219 L 254.84375 311.296875 L 253.472656 309.097656 L 210.484375 335.921875 L 207.636719 331.453125 L 249.351562 302.492188 L 247.980469 300.296875 L 204.910156 327.167969 L 202.070312 322.703125 L 243.859375 293.691406 L 242.488281 291.492188 L 199.339844 318.414062 L 196.5 313.953125 L 238.363281 284.890625 L 236.996094 282.691406 L 193.765625 309.65625 L 190.929688 305.203125 L 232.875 276.082031 L 231.5 273.890625 L 188.199219 300.90625 L 185.363281 296.453125 L 227.382812 267.28125 L 226.011719 265.082031 L 182.625 292.152344 L 179.792969 287.703125 L 221.890625 258.480469 L 220.519531 256.28125 L 177.054688 283.398438 L 174.226562 278.953125 L 216.394531 249.675781 L 215.027344 247.476562 L 171.480469 274.644531 L 168.652344 270.203125 L 210.902344 240.875 L 209.535156 238.675781 L 165.910156 265.894531 L 163.085938 261.453125 L 205.414062 232.070312 L 204.039062 229.875 L 160.335938 257.140625 L 157.515625 252.703125 L 199.921875 223.265625 L 198.550781 221.070312 L 154.765625 248.386719 L 151.945312 243.953125 L 194.429688 214.464844 L 193.058594 212.265625 L 149.425781 239.484375 C 147.777344 234.910156 149.429688 229.644531 153.707031 226.925781 L 186.804688 205.855469 C 184.671875 202.511719 180.382812 201.273438 176.78125 202.945312 C 153.847656 213.582031 143.703125 208.898438 143.703125 208.898438 C 112 206.027344 50.316406 107.246094 39.472656 89.488281 C 38.554688 87.996094 36.597656 87.550781 35.121094 88.488281 C 33.664062 89.417969 33.234375 91.351562 34.164062 92.8125 L 208.421875 366.582031 C 213.824219 375.078125 225.089844 377.574219 233.585938 372.171875 " fill-opacity="1" fill-rule="nonzero"/></g><path fill="#100f0d" d="M 253.074219 159.480469 C 253.074219 159.480469 242.160156 158.265625 228.222656 149.777344 C 228.222656 149.777344 247.011719 109.171875 225.1875 58.863281 L 234.28125 55.835938 C 234.28125 55.835938 251.855469 125.535156 253.074219 159.480469 " fill-opacity="1" fill-rule="nonzero"/><path fill="#100f0d" d="M 239.132812 205.539062 L 270.042969 235.847656 L 297.316406 347.371094 Z M 239.132812 205.539062 " fill-opacity="1" fill-rule="nonzero"/><g clip-path="url(#aaddcc60e8)"><path fill="#100f0d" d="M 246.402344 187.695312 C 243.3125 187.695312 240.816406 185.191406 240.816406 182.109375 C 240.816406 179.023438 243.3125 176.523438 246.402344 176.523438 C 249.484375 176.523438 251.988281 179.023438 251.988281 182.109375 C 251.988281 185.191406 249.484375 187.695312 246.402344 187.695312 Z M 253.679688 166.75 C 194.28125 149.777344 157.914062 100.078125 157.914062 100.078125 L 150.640625 104.324219 L 180.945312 136.445312 C 197.3125 155.234375 355.5 317.671875 355.5 317.671875 L 253.679688 166.75 " fill-opacity="1" fill-rule="nonzero"/></g><path fill="#100f0d" d="M 135.109375 54.597656 C 121.984375 54.597656 111.304688 65.273438 111.304688 78.398438 C 111.304688 91.523438 121.984375 102.203125 135.109375 102.203125 C 148.234375 102.203125 158.90625 91.523438 158.90625 78.398438 C 158.90625 65.273438 148.234375 54.597656 135.109375 54.597656 Z M 135.109375 110.21875 C 117.5625 110.21875 103.289062 95.945312 103.289062 78.398438 C 103.289062 60.859375 117.5625 46.582031 135.109375 46.582031 C 152.648438 46.582031 166.925781 60.859375 166.925781 78.398438 C 166.925781 95.945312 152.648438 110.21875 135.109375 110.21875 " fill-opacity="1" fill-rule="nonzero"/><path fill="#100f0d" d="M 222.132812 8.019531 C 209.011719 8.019531 198.332031 18.695312 198.332031 31.820312 C 198.332031 44.945312 209.011719 55.621094 222.132812 55.621094 C 235.257812 55.621094 245.9375 44.945312 245.9375 31.820312 C 245.9375 18.695312 235.257812 8.019531 222.132812 8.019531 Z M 222.132812 63.640625 C 204.589844 63.640625 190.3125 49.363281 190.3125 31.820312 C 190.3125 14.277344 204.589844 0.00390625 222.132812 0.00390625 C 239.679688 0.00390625 253.953125 14.277344 253.953125 31.820312 C 253.953125 49.363281 239.679688 63.640625 222.132812 63.640625 " fill-opacity="1" fill-rule="nonzero"/><path fill="#100f0d" d="M 107.296875 73.105469 C 107.296875 73.105469 106.410156 52.792969 93.277344 50.589844 C 87.5625 49.628906 82.71875 49.820312 79.082031 50.34375 C 76.882812 50.65625 75.773438 47.757812 77.617188 46.527344 C 81.1875 44.148438 86.359375 42.621094 93.277344 42.59375 C 112.203125 42.503906 99.683594 51.75 135.109375 48 C 135.109375 48 113.972656 49.160156 107.296875 73.105469 " fill-opacity="1" fill-rule="nonzero"/><path fill="#100f0d" d="M 197.269531 44.277344 C 197.269531 44.277344 192.160156 47.613281 183.660156 48.773438 L 187.523438 55.835938 C 187.523438 55.835938 197.75 57.242188 205.578125 54.167969 L 197.269531 44.277344 " fill-opacity="1" fill-rule="nonzero"/><g clip-path="url(#0bbd4c29f7)"><path fill="#100f0d" d="M 233.585938 372.171875 L 268.953125 349.65625 C 272.640625 347.3125 273.726562 342.421875 271.378906 338.730469 L 234.878906 356.640625 C 231.90625 358.097656 228.5625 358.035156 225.742188 356.734375 L 265.824219 328.90625 L 264.457031 326.707031 L 221.683594 353.390625 C 221.539062 353.191406 221.367188 353.019531 221.234375 352.8125 L 218.777344 348.949219 L 260.335938 320.097656 L 258.960938 317.898438 L 216.054688 344.671875 L 213.210938 340.199219 L 254.84375 311.296875 L 253.472656 309.097656 L 210.484375 335.921875 L 207.636719 331.453125 L 249.351562 302.492188 L 247.980469 300.296875 L 204.910156 327.167969 L 202.070312 322.703125 L 243.859375 293.691406 L 242.488281 291.492188 L 199.339844 318.414062 L 196.5 313.953125 L 238.363281 284.890625 L 236.996094 282.691406 L 193.765625 309.65625 L 190.929688 305.203125 L 232.875 276.082031 L 231.5 273.890625 L 188.199219 300.90625 L 185.363281 296.453125 L 227.382812 267.28125 L 226.011719 265.082031 L 182.625 292.152344 L 179.792969 287.703125 L 221.890625 258.480469 L 220.519531 256.28125 L 177.054688 283.398438 L 174.226562 278.953125 L 216.394531 249.675781 L 215.027344 247.476562 L 171.480469 274.644531 L 168.652344 270.203125 L 210.902344 240.875 L 209.535156 238.675781 L 165.910156 265.894531 L 163.085938 261.453125 L 205.414062 232.070312 L 204.039062 229.875 L 160.335938 257.140625 L 157.515625 252.703125 L 199.921875 223.265625 L 198.550781 221.070312 L 154.765625 248.386719 L 151.945312 243.953125 L 194.429688 214.464844 L 193.058594 212.265625 L 149.425781 239.484375 C 147.777344 234.910156 149.429688 229.644531 153.707031 226.925781 L 186.804688 205.855469 C 184.671875 202.511719 180.382812 201.273438 176.78125 202.945312 C 153.847656 213.582031 143.703125 208.898438 143.703125 208.898438 C 112 206.027344 50.316406 107.246094 39.472656 89.488281 C 38.554688 87.996094 36.597656 87.550781 35.121094 88.488281 C 33.664062 89.417969 33.234375 91.351562 34.164062 92.8125 L 208.421875 366.582031 C 213.824219 375.078125 225.089844 377.574219 233.585938 372.171875 " fill-opacity="1" fill-rule="nonzero"/></g><path fill="#100f0d" d="M 253.074219 159.480469 C 253.074219 159.480469 242.160156 158.265625 228.222656 149.777344 C 228.222656 149.777344 247.011719 109.171875 225.1875 58.863281 L 234.28125 55.835938 C 234.28125 55.835938 251.855469 125.535156 253.074219 159.480469 " fill-opacity="1" fill-rule="nonzero"/><path fill="#100f0d" d="M 239.132812 205.539062 L 270.042969 235.847656 L 297.316406 347.371094 Z M 239.132812 205.539062 " fill-opacity="1" fill-rule="nonzero"/><g clip-path="url(#62a09a162c)"><path fill="#100f0d" d="M 246.402344 187.695312 C 243.3125 187.695312 240.816406 185.191406 240.816406 182.109375 C 240.816406 179.023438 243.3125 176.523438 246.402344 176.523438 C 249.484375 176.523438 251.988281 179.023438 251.988281 182.109375 C 251.988281 185.191406 249.484375 187.695312 246.402344 187.695312 Z M 253.679688 166.75 C 194.28125 149.777344 157.914062 100.078125 157.914062 100.078125 L 150.640625 104.324219 L 180.945312 136.445312 C 197.3125 155.234375 355.5 317.671875 355.5 317.671875 L 253.679688 166.75 " fill-opacity="1" fill-rule="nonzero"/></g><path fill="#100f0d" d="M 135.109375 54.597656 C 121.984375 54.597656 111.304688 65.273438 111.304688 78.398438 C 111.304688 91.523438 121.984375 102.203125 135.109375 102.203125 C 148.234375 102.203125 158.90625 91.523438 158.90625 78.398438 C 158.90625 65.273438 148.234375 54.597656 135.109375 54.597656 Z M 135.109375 110.21875 C 117.5625 110.21875 103.289062 95.945312 103.289062 78.398438 C 103.289062 60.859375 117.5625 46.582031 135.109375 46.582031 C 152.648438 46.582031 166.925781 60.859375 166.925781 78.398438 C 166.925781 95.945312 152.648438 110.21875 135.109375 110.21875 " fill-opacity="1" fill-rule="nonzero"/><path fill="#100f0d" d="M 222.132812 8.019531 C 209.011719 8.019531 198.332031 18.695312 198.332031 31.820312 C 198.332031 44.945312 209.011719 55.621094 222.132812 55.621094 C 235.257812 55.621094 245.9375 44.945312 245.9375 31.820312 C 245.9375 18.695312 235.257812 8.019531 222.132812 8.019531 Z M 222.132812 63.640625 C 204.589844 63.640625 190.3125 49.363281 190.3125 31.820312 C 190.3125 14.277344 204.589844 0.00390625 222.132812 0.00390625 C 239.679688 0.00390625 253.953125 14.277344 253.953125 31.820312 C 253.953125 49.363281 239.679688 63.640625 222.132812 63.640625 " fill-opacity="1" fill-rule="nonzero"/><path fill="#100f0d" d="M 107.296875 73.105469 C 107.296875 73.105469 106.410156 52.792969 93.277344 50.589844 C 87.5625 49.628906 82.71875 49.820312 79.082031 50.34375 C 76.882812 50.65625 75.773438 47.757812 77.617188 46.527344 C 81.1875 44.148438 86.359375 42.621094 93.277344 42.59375 C 112.203125 42.503906 99.683594 51.75 135.109375 48 C 135.109375 48 113.972656 49.160156 107.296875 73.105469 " fill-opacity="1" fill-rule="nonzero"/><path fill="#100f0d" d="M 197.269531 44.277344 C 197.269531 44.277344 192.160156 47.613281 183.660156 48.773438 L 187.523438 55.835938 C 187.523438 55.835938 197.75 57.242188 205.578125 54.167969 L 197.269531 44.277344 " fill-opacity="1" fill-rule="nonzero"/></svg>