<svg xmlns="http://www.w3.org/2000/svg" xmlns:xlink="http://www.w3.org/1999/xlink" width="500" zoomAndPan="magnify" viewBox="0 0 375 374.999991" height="500" preserveAspectRatio="xMidYMid meet" version="1.0"><path fill="#000000" d="M 314.675781 60.324219 C 280.335938 25.984375 232.851562 5.636719 173.601562 -0.144531 L 172.152344 14.621094 C 227.90625 20.070312 272.3125 38.992188 304.160156 70.839844 C 336.007812 102.6875 354.929688 147.09375 360.378906 202.847656 L 375.144531 201.398438 C 369.363281 142.148438 349.015625 94.664062 314.675781 60.324219 " fill-opacity="1" fill-rule="nonzero"/><path fill="#000000" d="M 254.746094 203.679688 L 269.433594 201.59375 C 265.242188 172.238281 255.460938 149.703125 240.371094 134.628906 C 225.296875 119.539062 202.761719 109.757812 173.40625 105.566406 L 171.320312 120.253906 C 197.410156 123.980469 217.101562 132.351562 229.875 145.125 C 242.648438 157.898438 251.019531 177.589844 254.746094 203.679688 " fill-opacity="1" fill-rule="nonzero"/><path fill="#000000" d="M 173.464844 52.574219 L 171.785156 67.320312 C 212.714844 72.015625 244.757812 85.699219 267.039062 107.960938 C 289.300781 130.242188 302.984375 162.285156 307.679688 203.214844 L 322.425781 201.535156 C 317.339844 157.183594 302.230469 122.164062 277.53125 97.46875 C 252.835938 72.769531 217.816406 57.660156 173.464844 52.574219 " fill-opacity="1" fill-rule="nonzero"/><path fill="#000000" d="M 275.464844 254.949219 C 263.832031 243.296875 244.929688 243.296875 233.296875 254.949219 L 210.898438 277.328125 C 207.167969 281.058594 201.449219 281.808594 196.8125 279.277344 C 176.289062 268.109375 156.75 253.632812 139.066406 235.933594 C 121.367188 218.25 106.890625 198.710938 95.722656 178.1875 C 93.191406 173.550781 93.941406 167.832031 97.671875 164.101562 L 120.050781 141.703125 C 131.703125 130.070312 131.703125 111.167969 120.050781 99.535156 L 85.074219 64.539062 C 73.421875 52.886719 54.539062 52.886719 42.886719 64.539062 L 17.453125 89.96875 C 5.242188 102.164062 0.179688 119.828125 4.160156 136.621094 C 16.875 190.382812 45.226562 242.753906 88.726562 286.273438 C 132.246094 329.773438 184.617188 358.125 238.378906 370.839844 C 255.171875 374.820312 272.835938 369.757812 285.03125 357.546875 L 310.460938 332.113281 C 322.113281 320.460938 322.113281 301.578125 310.460938 289.925781 L 275.464844 254.949219 " fill-opacity="1" fill-rule="nonzero"/><path fill="#000000" d="M 314.675781 60.324219 C 280.335938 25.984375 232.851562 5.636719 173.601562 -0.144531 L 172.152344 14.621094 C 227.90625 20.070312 272.3125 38.992188 304.160156 70.839844 C 336.007812 102.6875 354.929688 147.09375 360.378906 202.847656 L 375.144531 201.398438 C 369.363281 142.148438 349.015625 94.664062 314.675781 60.324219 " fill-opacity="1" fill-rule="nonzero"/><path fill="#000000" d="M 254.746094 203.679688 L 269.433594 201.59375 C 265.242188 172.238281 255.460938 149.703125 240.371094 134.628906 C 225.296875 119.539062 202.761719 109.757812 173.40625 105.566406 L 171.320312 120.253906 C 197.410156 123.980469 217.101562 132.351562 229.875 145.125 C 242.648438 157.898438 251.019531 177.589844 254.746094 203.679688 " fill-opacity="1" fill-rule="nonzero"/><path fill="#000000" d="M 173.464844 52.574219 L 171.785156 67.320312 C 212.714844 72.015625 244.757812 85.699219 267.039062 107.960938 C 289.300781 130.242188 302.984375 162.285156 307.679688 203.214844 L 322.425781 201.535156 C 317.339844 157.183594 302.230469 122.164062 277.53125 97.46875 C 252.835938 72.769531 217.816406 57.660156 173.464844 52.574219 " fill-opacity="1" fill-rule="nonzero"/><path fill="#000000" d="M 275.464844 254.949219 C 263.832031 243.296875 244.929688 243.296875 233.296875 254.949219 L 210.898438 277.328125 C 207.167969 281.058594 201.449219 281.808594 196.8125 279.277344 C 176.289062 268.109375 156.75 253.632812 139.066406 235.933594 C 121.367188 218.25 106.890625 198.710938 95.722656 178.1875 C 93.191406 173.550781 93.941406 167.832031 97.671875 164.101562 L 120.050781 141.703125 C 131.703125 130.070312 131.703125 111.167969 120.050781 99.535156 L 85.074219 64.539062 C 73.421875 52.886719 54.539062 52.886719 42.886719 64.539062 L 17.453125 89.96875 C 5.242188 102.164062 0.179688 119.828125 4.160156 136.621094 C 16.875 190.382812 45.226562 242.753906 88.726562 286.273438 C 132.246094 329.773438 184.617188 358.125 238.378906 370.839844 C 255.171875 374.820312 272.835938 369.757812 285.03125 357.546875 L 310.460938 332.113281 C 322.113281 320.460938 322.113281 301.578125 310.460938 289.925781 L 275.464844 254.949219 " fill-opacity="1" fill-rule="nonzero"/></svg>